<?xml version="1.0" standalone="no"?>
<!DOCTYPE svg PUBLIC "-//W3C//DTD SVG 20010904//EN"
 "http://www.w3.org/TR/2001/REC-SVG-20010904/DTD/svg10.dtd">
<svg version="1.0" xmlns="http://www.w3.org/2000/svg"
 width="682.000000pt" height="462.000000pt" viewBox="0 0 682.000000 462.000000"
 preserveAspectRatio="xMidYMid meet">

<g transform="translate(0.000000,462.000000) scale(0.100000,-0.100000)"
fill="#000000" stroke="none">
<path d="M195 4592 c-78 -38 -131 -92 -166 -169 -38 -81 -38 -134 0 -216 43
-96 82 -128 255 -211 199 -97 319 -178 437 -295 108 -108 173 -200 246 -346
89 -177 151 -363 328 -990 53 -187 132 -453 175 -591 44 -139 80 -257 80 -263
0 -6 -18 -37 -39 -69 -195 -285 -203 -591 -21 -820 82 -105 249 -203 411 -242
134 -32 129 -35 129 63 1 137 28 214 130 359 28 39 50 82 50 94 0 32 -33 50
-105 59 -76 9 -116 26 -143 60 -30 38 -29 92 4 141 30 44 43 56 99 87 l40 22
1605 6 c1463 5 1611 7 1673 22 392 97 671 315 844 657 47 93 593 1726 593
1774 0 73 -80 171 -159 194 -29 9 -703 12 -2674 12 l-2635 0 -49 58 c-58 68
-181 192 -245 245 -97 80 -299 207 -424 266 -185 88 -251 112 -319 117 -51 4
-69 0 -120 -24z m2113 -1479 l-3 -388 -239 0 -239 0 -48 169 c-54 188 -114
375 -165 509 -19 49 -34 91 -34 93 0 2 164 4 365 4 l365 0 -2 -387z m990 0
l-3 -388 -365 0 -365 0 -3 388 -2 387 370 0 370 0 -2 -387z m992 -3 l0 -390
-367 2 -368 3 -3 375 c-1 206 0 381 3 387 3 10 86 13 370 13 l365 0 0 -390z
m990 0 l0 -390 -365 0 -365 0 0 390 0 390 365 0 365 0 0 -390z m1020 384 c0
-3 -57 -179 -126 -390 l-125 -384 -255 0 -254 0 0 390 0 390 380 0 c209 0 380
-3 380 -6z m-3992 -1411 l-3 -388 -77 -3 c-92 -3 -81 -18 -158 203 -46 135
-170 546 -170 567 0 4 92 8 205 8 l205 0 -2 -387z m990 0 l-3 -388 -365 0
-365 0 -3 388 -2 387 370 0 370 0 -2 -387z m992 -3 l0 -390 -367 2 -368 3 -3
375 c-1 206 0 381 3 387 3 10 86 13 370 13 l365 0 0 -390z m990 11 c0 -293 -3
-382 -12 -388 -7 -4 -172 -9 -365 -11 l-353 -4 0 391 0 391 365 0 365 0 0
-379z m680 371 c0 -4 -20 -67 -44 -139 -55 -165 -102 -254 -177 -339 -61 -69
-176 -174 -191 -174 -4 0 -8 149 -8 330 l0 330 210 0 c116 0 210 -4 210 -8z"/>
<path d="M3069 929 c-25 -25 -20 -43 30 -119 79 -118 121 -252 121 -387 l0
-73 630 0 630 0 0 78 c0 132 49 288 124 392 47 65 51 85 27 109 -21 21 -28 21
-781 21 -753 0 -760 0 -781 -21z"/>
<path d="M5498 940 c-31 -19 -20 -58 37 -137 30 -41 66 -98 80 -126 34 -71 58
-188 53 -266 l-4 -63 95 4 c108 5 155 23 216 83 149 150 104 398 -90 487 -44
20 -68 23 -210 26 -101 1 -167 -2 -177 -8z"/>
<path d="M2571 839 c-127 -25 -250 -121 -304 -238 -52 -110 -49 -254 6 -365
59 -121 239 -235 368 -236 56 0 161 31 221 65 55 31 121 96 152 149 68 118 75
267 20 386 -58 123 -176 214 -313 240 -61 11 -88 11 -150 -1z"/>
<path d="M4951 835 c-261 -57 -403 -354 -283 -594 32 -63 116 -153 170 -180
118 -60 203 -73 300 -45 165 48 278 157 318 309 62 231 -100 476 -341 515 -74
12 -84 12 -164 -5z"/>
</g>
</svg>
